<?xml version="1.0"?>
<svg xmlns="http://www.w3.org/2000/svg" id="Layer_1" data-name="Layer 1" viewBox="0 0 512 512" width="512" height="512"><title>Public Relations</title><path d="M401.43,126.73c67.56,5.67,107.98,79.71,76.12,140.73,0,0-11.13,27.48-12.21,39.09-3.67,39.38,12.78,101.08,12.78,101.08H381.29l-8.7-34.6a14.931,14.931,0,0,0-14.54-11.28c-5.77.03-12.73.06-18.55.09h-.02l-.18-11.83,1.39-.02,25.52-.16a34.888,34.888,0,0,0,34.56-35.21l-.13-14.3c.47.02.95.02,1.42.02a31.336,31.336,0,0,0,31.05-31.76l-.05-3.92a31.338,31.338,0,0,0-31.63-30.92Z" style="fill:#f8ec7d"/><path d="M400.64,300.32a31.333,31.333,0,0,1-30.21-30.9l-.05-3.92v-.44a31.341,31.341,0,0,1,62.68-.4l.05,3.92a31.336,31.336,0,0,1-31.05,31.76C401.59,300.34,401.11,300.34,400.64,300.32Z" style="fill:#6fe3ff"/><path d="M401.43,126.73V233.74a31.331,31.331,0,0,0-31.05,31.32v.44l.05,3.92a31.333,31.333,0,0,0,30.21,30.9l.13,14.3a34.888,34.888,0,0,1-34.56,35.21l-25.52.16-1.39.02-.2-13.4H303.9v-31.9H273.25a4.618,4.618,0,0,1-4.32-6.26l19.95-52.25s.05-19.7.16-21.59a103.949,103.949,0,0,1,104.98-98.24c.89.01,1.79.03,2.68.07C398.29,126.5,399.87,126.59,401.43,126.73Z" style="fill:#f8ec7d"/><polygon points="324.11 414.91 296.48 396.93 342.48 387.19 352.22 433.2 324.11 414.91" style="fill:#6fe3ff"/><path d="M339.48,361.84l.03,2.35-41.69.64a14.106,14.106,0,0,1-14.27-13.91v-.2a14.112,14.112,0,0,1,13.95-14.11h41.6l.2,13.4Z" style="fill:#6fe3ff"/><path d="M233.08,303.41a4.408,4.408,0,0,1-4.12,5.98H199.71v32.57a22.064,22.064,0,0,1-22.7,22.05c-1.56-.05-17.67-.13-29-.17a14.232,14.232,0,0,0-13.87,10.77l-8.31,33.02H33.4s15.7-58.89,12.2-96.49c-1.03-11.08-11.65-37.31-11.65-37.31-31.12-59.59,9.99-132.2,77.17-134.61.85-.03,1.71-.05,2.56-.06a99.224,99.224,0,0,1,100.21,93.77c.11,1.81.15,20.6.15,20.6Z" style="fill:#e48e66"/><polygon points="161.14 97.09 188.77 115.07 142.77 124.81 133.03 78.8 161.14 97.09" style="fill:#6fe3ff"/><path d="M283.05,224.262c-.1,1.793-.153,15.917-.167,20.824l-19.56,51.228a10.617,10.617,0,0,0,9.927,14.4H297.9v19.9h-.47a20.185,20.185,0,0,0-19.88,20.11v.285a20.149,20.149,0,0,0,20.126,19.826h.236l41.69-.641a5.983,5.983,0,0,0,4.681-2.372l13.793-.067h.039a8.916,8.916,0,0,1,8.656,6.743l8.7,34.6a6,6,0,0,0,5.819,4.537h96.83a6,6,0,0,0,5.8-7.546c-.161-.606-16.133-61.1-12.6-98.979.809-8.692,8.61-29.487,11.691-37.131a102.746,102.746,0,0,0-1.248-97.026,100.707,100.707,0,0,0-79.79-52.194c-1.544-.139-3.193-.24-5-.308-.958-.043-1.927-.065-2.884-.075A109.949,109.949,0,0,0,283.05,224.262Zm14.7,134.569a8.111,8.111,0,0,1-8.2-7.911v-.2a8.127,8.127,0,0,1,7.95-8.11h35.689l.236,15.673Zm173.493-180.1a90.771,90.771,0,0,1,.988,85.951q-.134.256-.242.525c-1.174,2.9-11.494,28.648-12.623,40.785-1.573,16.872.137,39.388,5.082,66.925,2.153,11.986,4.441,22.2,5.993,28.712H385.968l-7.561-30.069a20.874,20.874,0,0,0-18.2-15.693l6.062-.038a40.934,40.934,0,0,0,40.5-41.265l-.079-8.555A37.321,37.321,0,0,0,439.109,268.5l-.049-3.924a37.445,37.445,0,0,0-31.63-36.4V133.509A88.876,88.876,0,0,1,471.243,178.732ZM401.486,239.74h.238a25.392,25.392,0,0,1,25.337,25l.049,3.927a25.338,25.338,0,0,1-25.05,25.677c-.387,0-.779,0-1.164-.015l-.046,0a25.287,25.287,0,0,1-24.42-24.98l-.05-4.283A25.409,25.409,0,0,1,401.486,239.74Zm-8.648-107.376c.369,0,.747,0,1.116.006.482,0,.983.024,1.476.038V228.28a37.467,37.467,0,0,0-31.05,36.78l.051,4.439a37.277,37.277,0,0,0,30.257,36.17l.083,9.007a28.917,28.917,0,0,1-28.6,29.154l-20.96.132-.112-7.441a6,6,0,0,0-6-5.911H309.9v-25.9a6,6,0,0,0-6-6H275.253l19.232-50.37a6,6,0,0,0,.395-2.125c.024-9.407.085-20.055.151-21.281A97.7,97.7,0,0,1,392.838,132.364Z" style="fill:#63316d"/><path d="M136.9,126.053a6,6,0,0,0,7.113,4.627l46-9.741a6,6,0,0,0,2.029-10.9L169.9,95.63A122.494,122.494,0,0,1,348.125,84.065a6,6,0,0,0,8.19-8.77A134.494,134.494,0,0,0,159.78,89.047L136.3,73.771a6,6,0,0,0-9.142,6.271Zm20.711-24.1a6.226,6.226,0,0,0,.533.346l15.215,9.9L147.4,117.7l-5.5-25.968Z" style="fill:#63316d"/><path d="M246.188,458.32a122.735,122.735,0,0,1-109.063-30.385,6,6,0,0,0-8.19,8.77A134.494,134.494,0,0,0,325.47,422.953l23.478,15.276a6,6,0,0,0,9.142-6.271l-9.74-46.011a6,6,0,0,0-7.113-4.627l-46,9.741a6,6,0,0,0-2.029,10.9l22.146,14.411A122.31,122.31,0,0,1,246.188,458.32ZM337.853,394.3l5.5,25.968-15.711-10.224a6.226,6.226,0,0,0-.533-.346l-15.215-9.9Z" style="fill:#63316d"/><path d="M39.626,311.7c3.359,36.084-11.87,93.81-12.024,94.389a6,6,0,0,0,5.8,7.545h92.43a6,6,0,0,0,5.818-4.536l8.311-33.02a8.224,8.224,0,0,1,7.991-6.234h.039c12.553.044,27.48.123,28.835.167a28.2,28.2,0,0,0,20.365-7.911,27.816,27.816,0,0,0,8.521-20.136V315.39h23.25a10.408,10.408,0,0,0,9.726-14.119l-18.648-48.854c-.012-4.73-.054-18.122-.157-19.811a104.989,104.989,0,0,0-106.27-99.445c-.9.01-1.806.031-2.706.063A96.209,96.209,0,0,0,30.869,181.4,98.076,98.076,0,0,0,28.5,276.344C31.433,283.637,38.857,303.428,39.626,311.7Zm1.616-124.26a84.271,84.271,0,0,1,70.091-42.22c.8-.028,1.614-.047,2.414-.056.354,0,.7-.006,1.059-.006a93.01,93.01,0,0,1,93.1,88.135c.065,1.181.12,11.317.139,20.253a5.99,5.99,0,0,0,.4,2.127L226.65,303.39H199.71a6,6,0,0,0-6,6v32.57A16.065,16.065,0,0,1,177.2,358.013c-1.858-.059-20.455-.142-29.164-.173h-.094a20.2,20.2,0,0,0-19.621,15.306l-7.169,28.484H41.082c4.135-17.317,13.338-60.476,10.492-91.046-1.08-11.622-10.942-36.237-12.062-39q-.109-.27-.243-.526A86.137,86.137,0,0,1,41.242,187.436Z" style="fill:#63316d"/></svg>
