<svg enable-background="new 0 0 100 100" height="512" viewBox="0 0 100 100" width="512" xmlns="http://www.w3.org/2000/svg"><path d="m76.071022 14.5574112h-52.1420478c-2.3160934 0-4.1937199 1.8774986-4.1937199 4.1937199v71.575058c0 2.3162231 1.8776264 4.193718 4.1937199 4.193718h52.1420478c2.3161621 0 4.1937256-1.8774948 4.1937256-4.193718v-71.575058c0-2.3162213-1.8775635-4.1937199-4.1937256-4.1937199z" fill="#db584d"/><path d="m23.929039 18.751644h52.141987v71.574799h-52.141987z" fill="#e6e7e8"/><path d="m61.458149 11.2149744h-5.732193c0-3.1662788-2.5581741-5.7348814-5.724453-5.7348814s-5.7349434 2.5686026-5.7349434 5.7348814h-5.7216988c-2.4333916 0-4.4061089 1.9727173-4.4061089 4.4061699v6.2422514h31.7255058v-6.2422514c.0000001-2.4334526-1.9726561-4.4061699-4.4061087-4.4061699zm-11.4581185 2.4329405c-1.3457947 0-2.4368439-1.091176-2.4368439-2.43678 0-1.3458605 1.0910492-2.4367809 2.4368439-2.4367809 1.3457985 0 2.4367828 1.0909204 2.4367828 2.4367809.0000001 1.345604-1.0909843 2.43678-2.4367828 2.43678z" fill="#32796b"/><path d="m65.0696793 46.9844742c.2897491 0 .5242157-.2344627.5242157-.5242157s-.2344666-.5242157-.5242157-.5242157h-5.8134651v-10.2027397h5.8134651c.2897491 0 .5242157-.2344627.5242157-.5242119 0-.289753-.2344666-.5242157-.5242157-.5242157h-6.3376808c-.2897491 0-.5242119.2344627-.5242119.5242157v10.7269516h-5.8139763c-.289753 0-.5242157.2344627-.5242157.5242157s.2344627.5242157.5242157.5242157h5.8139763v10.3041c0 .289753.2344627.5242157.5242119.5242157h6.3376808c.2897491 0 .5242157-.2344627.5242157-.5242157s-.2344666-.5242157-.5242157-.5242157h-5.8134651v-9.7798843z" fill="#dad7dc"/><path d="m47.6062546 45.9360428h-5.8139763v-10.3051224c0-.289753-.2344627-.5242157-.5242157-.5242157h-6.337677c-.2897491 0-.5242157.2344627-.5242157.5242157 0 .2897491.2344666.5242119.5242157.5242119h5.8134651v9.7809105h-5.8134651c-.2897491 0-.5242157.2344627-.5242157.5242157s.2344666.5242157.5242157.5242157h5.8134651v10.2017136h-5.8134651c-.2897491 0-.5242157.2344627-.5242157.5242157s.2344666.5242157.5242157.5242157h6.337677c.289753 0 .5242157-.2344627.5242157-.5242157v-10.7259293h5.8139763c.2897491 0 .5242119-.2344627.5242119-.5242157s-.2344628-.5242157-.5242119-.5242157z" fill="#dad7dc"/><circle cx="50" cy="46.46" fill="#48b19a" r="6.006"/><g fill="#509fd7"><circle cx="65.792" cy="57.289" r="3.696"/><circle cx="65.792" cy="35.631" r="3.696"/><circle cx="34.208" cy="35.631" r="3.696"/><circle cx="34.208" cy="57.289" r="3.696"/></g><circle cx="65.792" cy="46.46" fill="#4388b9" r="3.696"/><circle cx="34.208" cy="46.46" fill="#4388b9" r="3.696"/><g fill="#b0b1b5"><path d="m29.299711 66.178101h41.400642v1.953645h-41.400642z"/><path d="m29.299711 71.098633h41.400642v1.953645h-41.400642z"/><path d="m29.299711 76.019157h18.830757v1.953645h-18.830757z"/><path d="m29.299711 80.939682h18.830757v1.953645h-18.830757z"/></g></svg>