<svg height="488pt" viewBox="0 0 488 488.202" width="488pt" xmlns="http://www.w3.org/2000/svg"><path d="m29.101562 52h430v300h-430zm0 0" fill="#6bdddd"/><path d="m424.972656 313.523438h-90.230468c-7.25 0-13.128907-5.878907-13.128907-13.125v-68.300782c0-7.25 5.878907-13.128906 13.128907-13.128906h90.230468c7.25 0 13.128906 5.878906 13.128906 13.128906v68.300782c0 7.25-5.878906 13.125-13.128906 13.125zm0 0" fill="#e0ebfc"/><path d="m153.460938 176.078125h-90.234376c-7.246093 0-13.125-5.875-13.125-13.125v-68.300781c0-7.25 5.878907-13.125 13.125-13.125h90.234376c7.25 0 13.125 5.875 13.125 13.125v68.300781c0 7.25-5.875 13.125-13.125 13.125zm0 0" fill="#e0ebfc"/><g fill="#f9cfcf"><path d="m166.585938 230.96875h-114.566407c-4.417969 0-8-3.582031-8-8s3.582031-8 8-8h114.566407c4.417968 0 8 3.582031 8 8s-3.582032 8-8 8zm0 0"/><path d="m437.144531 91.039062h-114.566406c-4.417969 0-8-3.582031-8-8 0-4.417968 3.582031-8 8-8h114.566406c4.417969 0 8 3.582032 8 8 0 4.417969-3.585937 8-8 8zm0 0"/><path d="m166.585938 266.96875h-114.566407c-4.417969 0-8-3.582031-8-8s3.582031-8 8-8h114.566407c4.417968 0 8 3.582031 8 8s-3.582032 8-8 8zm0 0"/><path d="m437.144531 123.039062h-65.3125c-4.417969 0-8-3.582031-8-8 0-4.417968 3.582031-8 8-8h65.3125c4.417969 0 8 3.582032 8 8 0 4.417969-3.585937 8-8 8zm0 0"/></g><path d="m460.253906 52h-432.304687c-13.171875 0-23.847657-10.679688-23.847657-23.851562v-.300782c0-13.171875 10.675782-23.847656 23.847657-23.847656h432.300781c13.171875 0 23.847656 10.679688 23.847656 23.847656v.300782c.003906 13.171874-10.675781 23.851562-23.84375 23.851562zm0 0" fill="#f9a7a7"/><path d="m459.101562 355.996094h-430c-2.207031 0-4-1.789063-4-4v-300c0-2.207032 1.792969-4 4-4h430c2.207032 0 4 1.792968 4 4v300c0 2.210937-1.792968 4-4 4zm-426-8h422v-292h-422zm0 0" fill="#3762cc"/><path d="m460.25 55.996094h-432.300781c-15.355469 0-27.847657-12.488282-27.847657-27.84375v-.300782c0-15.359374 12.492188-27.851562 27.847657-27.851562h432.300781c15.355469 0 27.851562 12.492188 27.851562 27.851562v.300782c0 15.355468-12.496093 27.84375-27.851562 27.84375zm-432.300781-48c-10.945313 0-19.847657 8.90625-19.847657 19.851562v.300782c0 10.945312 8.902344 19.847656 19.847657 19.847656h432.300781c10.945312 0 19.851562-8.902344 19.851562-19.847656v-.300782c0-10.945312-8.90625-19.851562-19.851562-19.851562zm0 0" fill="#3762cc"/><path d="m347.226562 166.203125h-21.570312c-1.21875 0-2.277344-.8125-2.632812-1.976563-1.578126-5.1875-3.652344-10.15625-6.171876-14.859374-.578124-1.078126-.402343-2.398438.460938-3.261719l15.265625-15.265625c2.683594-2.6875 2.683594-7.039063 0-9.726563l-21.390625-21.390625c-2.683594-2.683594-7.035156-2.683594-9.71875 0l-15.269531 15.265625c-.863281.867188-2.183594 1.042969-3.261719.464844-4.699219-2.519531-9.671875-4.59375-14.859375-6.175781-1.167969-.355469-1.976563-1.410156-1.976563-2.632813v-21.566406c0-3.796875-3.078124-6.875-6.875-6.875h-30.25c-3.796874 0-6.875 3.078125-6.875 6.875v21.570313c0 1.21875-.8125 2.277343-1.976562 2.632812-5.1875 1.578125-10.15625 3.652344-14.859375 6.171875-1.078125.578125-2.398437.402344-3.261719-.460937l-15.265625-15.265626c-2.683593-2.683593-7.039062-2.683593-9.722656 0l-21.390625 21.390626c-2.6875 2.683593-2.6875 7.035156 0 9.722656l15.265625 15.265625c.863281.863281 1.039063 2.1875.460937 3.265625-2.519531 4.699218-4.59375 9.667968-6.171874 14.855468-.355469 1.164063-1.414063 1.976563-2.632813 1.976563h-21.570313c-3.796874 0-6.875 3.078125-6.875 6.875v30.25c0 3.796875 3.078126 6.875 6.875 6.875h21.570313c1.21875 0 2.277344.8125 2.632813 1.976563 1.578124 5.1875 3.652343 10.15625 6.171874 14.859374.578126 1.078126.402344 2.398438-.460937 3.261719l-15.265625 15.265625c-2.683594 2.6875-2.683594 7.039063 0 9.722656l21.390625 21.390626c2.683594 2.683593 7.039063 2.683593 9.722656 0l15.265625-15.265626c.863282-.863281 2.183594-1.039062 3.261719-.460937 4.703125 2.519531 9.671875 4.59375 14.859375 6.171875 1.167969.355469 1.976562 1.414062 1.976562 2.632812v21.570313c0 3.796875 3.078126 6.875 6.875 6.875h30.25c3.796876 0 6.875-3.078125 6.875-6.875v-21.570313c0-1.21875.8125-2.277343 1.976563-2.632812 5.1875-1.578125 10.15625-3.652344 14.859375-6.171875 1.078125-.578125 2.398438-.402344 3.261719.460937l15.269531 15.265626c2.683594 2.683593 7.035156 2.683593 9.71875 0l21.390625-21.390626c2.683594-2.683593 2.683594-7.035156 0-9.722656l-15.265625-15.265625c-.863281-.863281-1.039062-2.183593-.460938-3.261719 2.519532-4.699218 4.59375-9.671874 6.171876-14.859374.359374-1.167969 1.414062-1.976563 2.632812-1.976563h21.570312c3.796876 0 6.875-3.078125 6.875-6.875v-30.25c0-3.796875-3.078124-6.875-6.875-6.875zm-103.125 76.285156c-29.933593 0-54.285156-24.351562-54.285156-54.285156s24.351563-54.289063 54.285156-54.289063c29.929688 0 54.285157 24.355469 54.285157 54.289063 0 29.929687-24.355469 54.285156-54.285157 54.285156zm0 0" fill="#ffea94"/><path d="m105.488281 432.984375h-8.53125c-.019531 0-.035156-.003906-.054687-.003906l-.003906.003906h-56.121094c-14.828125 0-26.847656 12.019531-26.847656 26.84375v24.375h118.402343v-24.375c0-14.824219-12.015625-26.84375-26.84375-26.84375zm0 0" fill="#e0ebfc"/><path d="m73.132812 426.804688c-8.601562 0-16.71875-2.042969-23.886718-5.671876v10.847657c0 .378906.054687.746093.132812 1.113281h.007813c.078125.367188.191406.71875.34375 1.058594.019531.042968.035156.089844.058593.132812.066407.140625.136719.273438.214844.410156.078125.128907.160156.253907.25.375.046875.066407.085938.136719.136719.199219l3.390625 4.316407c3.378906 4.292968 8.066406 7.40625 13.371094 8.644531.710937.167969 1.449218.3125 2.210937.425781 8.613281 1.292969 17.226563-2.375 22.582031-9.28125l4.949219-6.382812c.066407-.339844.113281-.6875.113281-1.039063v-10.8125c-7.167968 3.625-15.277343 5.664063-23.875 5.664063zm0 0" fill="#f9cfcf"/><path d="m126.105469 354.796875c-.113281 0-.21875.015625-.332031.015625v-4.925781c0-28.8125-23.570313-52.164063-52.640626-52.164063-29.070312 0-52.640624 23.355469-52.640624 52.164063v4.925781c-.109376 0-.21875-.015625-.332032-.015625-8.871094 0-16.058594 7.128906-16.058594 15.914063 0 8.792968 7.1875 15.914062 16.058594 15.914062.582032 0 1.15625-.03125 1.726563-.09375 5.429687 23.078125 26.304687 40.273438 51.246093 40.273438 24.941407 0 45.816407-17.195313 51.25-40.273438.5625.0625 1.136719.09375 1.722657.09375 8.871093 0 16.058593-7.125 16.058593-15.914062 0-8.789063-7.191406-15.914063-16.058593-15.914063zm0 0" fill="#f9cfcf"/><path d="m73.132812 430.808594c-25.363281 0-47.246093-16.378906-54.308593-40.222656-10.4375-.6875-18.722657-9.339844-18.722657-19.875 0-9.738282 7.074219-17.863282 16.390626-19.578126v-1.246093c0-30.972657 25.410156-56.167969 56.640624-56.167969 31.226563 0 56.636719 25.195312 56.636719 56.167969v1.246093c9.316407 1.714844 16.390625 9.839844 16.390625 19.578126 0 10.535156-8.28125 19.1875-18.722656 19.875-7.058594 23.839843-28.945312 40.222656-54.304688 40.222656zm-51.242187-48.277344c1.832031 0 3.457031 1.261719 3.886719 3.085938 5.152344 21.898437 24.628906 37.191406 47.355468 37.191406 22.726563 0 42.203126-15.292969 47.355469-37.191406.460938-1.964844 2.316407-3.277344 4.320313-3.0625.425781.046874.859375.074218 1.296875.074218 6.648437 0 12.058593-5.347656 12.058593-11.917968 0-6.546876-5.378906-11.878907-12-11.914063-.144531.007813-.320312.015625-.394531.015625-1.046875 0-2.050781-.410156-2.800781-1.144531-.765625-.753907-1.199219-1.78125-1.199219-2.855469v-4.925781c0-26.558594-21.816406-48.167969-48.636719-48.167969-26.820312 0-48.636718 21.609375-48.636718 48.167969v4.925781c0 1.074219-.433594 2.101562-1.199219 2.855469-.765625.753906-1.847656 1.121093-2.875 1.144531-.0625 0-.28125-.011719-.347656-.015625-6.5625 0-11.972657 5.34375-11.972657 11.914063 0 6.570312 5.410157 11.917968 12.058594 11.917968.4375 0 .871094-.027344 1.296875-.074218.144531-.015626.289063-.023438.433594-.023438zm0 0" fill="#3762cc"/><path d="m132.332031 488.203125h-118.402343c-2.207032 0-4-1.792969-4-4v-24.375c0-17.007813 13.839843-30.847656 30.847656-30.847656h4.46875v-7.847657c0-1.390624.722656-2.679687 1.90625-3.410156 1.183594-.726562 2.65625-.789062 3.902344-.160156 6.871093 3.480469 14.296874 5.242188 22.078124 5.242188 7.769532 0 15.195313-1.761719 22.066407-5.234376 1.238281-.625 2.714843-.5625 3.898437.164063s1.90625 2.019531 1.90625 3.40625v7.839844h4.480469c17.007813 0 30.847656 13.839843 30.847656 30.847656v24.375c0 2.207031-1.789062 4-4 4zm-114.402343-8h110.402343v-20.375c0-12.597656-10.246093-22.847656-22.84375-22.847656h-8.535156c-.019531 0-.039063 0-.054687 0-1.203126 0-2.339844-.539063-3.101563-1.464844-.761719-.929687-1.0625-2.148437-.824219-3.324219.015625-.078125.03125-.160156.03125-.238281v-4.699219c-6.320312 2.359375-12.980468 3.550782-19.871094 3.550782-6.898437 0-13.5625-1.191407-19.886718-3.558594v4.734375c.007812.058593.027344.148437.042968.234375.226563 1.171875-.078124 2.386718-.839843 3.308594-.757813.921874-1.890625 1.457031-3.085938 1.457031h-8.589843c-12.597657 0-22.84375 10.25-22.84375 22.847656zm0 0" fill="#3762cc"/><path d="m137.355469 321.136719c0-23.207031-18.8125-42.019531-42.019531-42.019531h-30.730469c-7.320313 0-13.664063 4.148437-16.835938 10.21875-2.222656-2.394532-5.394531-3.902344-8.921875-3.902344h-4.398437c-15.203125 0-27.523438 12.320312-27.523438 27.523437v28.453125c0 2.089844.992188 3.929688 2.507813 5.136719v15.566406c0 24.777344 20.085937 44.863281 44.863281 44.863281h35.683594c24.777343 0 44.863281-20.085937 44.863281-44.863281v-26.527343c1.59375-3.109376 2.507812-6.625 2.507812-10.363282v-4.085937zm0 0" fill="#4671c6"/><path d="m89.980469 410.976562h-35.679688c-26.945312 0-48.863281-21.921874-48.863281-48.863281v-13.894531c-1.617188-1.894531-2.511719-4.289062-2.511719-6.808594v-28.457031c0-17.382813 14.140625-31.523437 31.523438-31.523437h4.398437c2.808594 0 5.558594.746093 7.972656 2.117187 4.316407-5.285156 10.792969-8.429687 17.785157-8.429687h30.730469c25.378906 0 46.019531 20.644531 46.019531 46.019531v4.085937c0 3.933594-.84375 7.726563-2.511719 11.289063v25.601562c0 26.941407-21.917969 48.863281-48.863281 48.863281zm-55.53125-121.546874c-12.96875 0-23.523438 10.550781-23.523438 23.523437v28.457031c0 1.050782.625 1.707032 1 2.003906.957031.761719 1.511719 1.910157 1.511719 3.132813v15.566406c0 22.53125 18.328125 40.863281 40.863281 40.863281h35.679688c22.53125 0 40.863281-18.332031 40.863281-40.863281v-26.527343c0-.636719.152344-1.261719.441406-1.824219 1.375-2.683594 2.070313-5.550781 2.070313-8.539063v-4.089844c0-20.960937-17.054688-38.015624-38.019531-38.015624h-30.730469c-5.597657 0-10.6875 3.089843-13.289063 8.066406-.601562 1.152344-1.722656 1.941406-3.011718 2.113281-1.292969.167969-2.578126-.289063-3.460938-1.242187-1.574219-1.691407-3.703125-2.625-5.996094-2.625zm0 0" fill="#3762cc"/><path d="m447.425781 432.984375h-8.53125c-.019531 0-.039062-.003906-.054687-.003906l-.003906.003906h-56.121094c-14.828125 0-26.847656 12.019531-26.847656 26.84375v24.375h118.402343v-24.375c0-14.824219-12.019531-26.84375-26.84375-26.84375zm0 0" fill="#a4c9ff"/><path d="m415.070312 426.804688c-8.601562 0-16.71875-2.042969-23.886718-5.671876v10.847657c0 .378906.054687.746093.132812 1.113281h.003906c.078126.367188.195313.71875.34375 1.058594.019532.042968.039063.089844.0625.132812.0625.140625.136719.273438.214844.410156.074219.128907.160156.253907.246094.375.050781.066407.089844.136719.140625.199219l3.390625 4.316407c3.378906 4.292968 8.0625 7.40625 13.367188 8.644531.714843.167969 1.449218.3125 2.214843.425781 8.613281 1.292969 17.226563-2.375 22.582031-9.28125l4.945313-6.382812c.070313-.339844.113281-.6875.113281-1.039063v-10.8125c-7.164062 3.625-15.277344 5.664063-23.871094 5.664063zm0 0" fill="#f9cfcf"/><path d="m468.039062 354.796875c-.109374 0-.21875.015625-.328124.015625v-4.925781c0-28.8125-23.570313-52.164063-52.640626-52.164063-29.074218 0-52.640624 23.355469-52.640624 52.164063v4.925781c-.113282 0-.21875-.015625-.332032-.015625-8.871094 0-16.0625 7.128906-16.0625 15.914063 0 8.792968 7.191406 15.914062 16.0625 15.914062.582032 0 1.15625-.03125 1.722656-.09375 5.433594 23.078125 26.308594 40.273438 51.25 40.273438 24.941407 0 45.816407-17.195313 51.246094-40.273438.566406.0625 1.140625.09375 1.722656.09375 8.871094 0 16.0625-7.125 16.0625-15.914062 0-8.789063-7.191406-15.914063-16.0625-15.914063zm0 0" fill="#f9cfcf"/><path d="m415.070312 430.808594c-25.363281 0-47.246093-16.378906-54.308593-40.222656-10.441407-.6875-18.722657-9.339844-18.722657-19.875 0-9.738282 7.074219-17.863282 16.390626-19.578126v-1.246093c0-30.972657 25.410156-56.167969 56.640624-56.167969 31.230469 0 56.636719 25.195312 56.636719 56.167969v1.246093c9.316407 1.714844 16.390625 9.839844 16.390625 19.578126 0 10.535156-8.28125 19.1875-18.71875 19.875-7.0625 23.839843-28.949218 40.222656-54.308594 40.222656zm-51.246093-48.277344c1.835937 0 3.460937 1.261719 3.890625 3.085938 5.152344 21.898437 24.625 37.191406 47.355468 37.191406 22.726563 0 42.199219-15.292969 47.351563-37.191406.464844-1.964844 2.328125-3.277344 4.320313-3.0625.425781.046874.859374.074218 1.296874.074218 6.648438 0 12.058594-5.347656 12.058594-11.917968 0-6.546876-5.375-11.882813-11.996094-11.914063-.152343.007813-.328124.015625-.394531.015625-1.046875 0-2.054687-.410156-2.800781-1.144531-.765625-.753907-1.199219-1.78125-1.199219-2.855469v-4.925781c0-26.558594-21.816406-48.167969-48.636719-48.167969-26.820312 0-48.640624 21.609375-48.640624 48.167969v4.925781c0 1.074219-.429688 2.101562-1.195313 2.855469-.765625.75-1.875 1.136719-2.875 1.144531-.0625 0-.285156-.011719-.351563-.015625-6.5625 0-11.972656 5.34375-11.972656 11.914063 0 6.570312 5.410156 11.917968 12.058594 11.917968.441406 0 .875-.027344 1.300781-.074218.144531-.015626.289063-.023438.429688-.023438zm0 0" fill="#3762cc"/><path d="m474.269531 488.203125h-118.402343c-2.207032 0-4-1.792969-4-4v-24.375c0-17.007813 13.839843-30.847656 30.847656-30.847656h4.46875v-7.847657c0-1.390624.71875-2.679687 1.902344-3.410156 1.183593-.726562 2.65625-.789062 3.902343-.160156 6.875 3.480469 14.304688 5.242188 22.082031 5.242188 7.769532 0 15.195313-1.761719 22.066407-5.234376 1.238281-.625 2.714843-.5625 3.898437.164063 1.1875.726563 1.90625 2.019531 1.90625 3.40625v7.839844h4.480469c17.007813 0 30.847656 13.839843 30.847656 30.847656v24.375c0 2.207031-1.789062 4-4 4zm-114.402343-8h110.402343v-20.375c0-12.597656-10.246093-22.847656-22.84375-22.847656h-8.53125c-.027343 0-.042969 0-.058593 0-1.199219 0-2.339844-.539063-3.101563-1.464844-.757813-.929687-1.0625-2.148437-.824219-3.324219.015625-.078125.03125-.160156.03125-.238281v-4.699219c-6.320312 2.359375-12.980468 3.550782-19.871094 3.550782-6.898437 0-13.5625-1.195313-19.886718-3.558594v4.734375c.003906.054687.027344.144531.042968.234375.226563 1.171875-.078124 2.386718-.835937 3.308594-.761719.921874-1.894531 1.457031-3.089844 1.457031h-8.585937c-12.601563 0-22.847656 10.25-22.847656 22.847656zm0 0" fill="#3762cc"/><path d="m476.40625 279.117188h-69.148438c-5.40625 0-10.273437 2.265624-13.730468 5.894531-1.578125 1.65625-4.027344 1.976562-6.171875 1.183593-1.34375-.496093-2.792969-.765624-4.304688-.765624h-5.394531c-15.507812 0-28.082031 12.570312-28.082031 28.078124v37.875c0 4.664063.578125 9.191407 1.644531 13.527344h-.003906l.007812.023438c.59375 2.410156 1.355469 4.75 2.25 7.027344h-.007812l.042968.089843c1.234376 3.128907 2.738282 6.125 4.484376 8.953125l4.050781 8.085938c5.492187 10.960937 16.703125 17.886718 28.964843 17.886718h47.253907c12.261719 0 23.472656-6.925781 28.964843-17.886718l3.019532-6.027344c3.699218-5.4375 6.488281-11.550781 8.109375-18.128906l.007812-.019532h-.003906c1.066406-4.335937 1.644531-8.863281 1.644531-13.53125v-68.664062c.003906-1.988281-1.609375-3.601562-3.597656-3.601562zm0 0" fill="#4671c6"/><path d="m438.265625 410.976562h-47.253906c-13.863281 0-26.332031-7.703124-32.542969-20.097656l-3.972656-7.925781c-1.828125-2.980469-3.40625-6.144531-4.695313-9.410156-.019531-.039063-.035156-.082031-.046875-.125l-.003906.003906c-.972656-2.484375-1.777344-4.996094-2.390625-7.46875-.007813-.027344-.015625-.058594-.023437-.085937-1.167969-4.746094-1.757813-9.625-1.757813-14.484376v-37.871093c0-17.691407 14.390625-32.082031 32.078125-32.082031h5.394531c1.953125 0 3.871094.34375 5.691407 1.015624.632812.234376 1.457031.261719 1.890624-.191406 4.378907-4.601562 10.285157-7.136718 16.625-7.136718h69.148438c4.191406 0 7.601562 3.410156 7.601562 7.601562v68.664062c0 4.792969-.578124 9.597657-1.710937 14.277344-.027344.144532-.0625.289063-.105469.429688-1.691406 6.769531-4.546875 13.15625-8.484375 19l-2.898437 5.789062c-6.210938 12.394532-18.679688 20.097656-32.542969 20.097656zm-81.066406-40.46875c.015625.027344.027343.050782.035156.074219 1.136719 2.890625 2.539063 5.691407 4.164063 8.316407.0625.101562.121093.207031.175781.3125l4.046875 8.082031c4.847656 9.671875 14.574218 15.679687 25.390625 15.679687h47.253906c10.816406 0 20.542969-6.007812 25.386719-15.679687l3.019531-6.023438c.078125-.160156.167969-.3125.269531-.460937 3.519532-5.167969 6.050782-10.832032 7.535156-16.835938.003907-.019531.007813-.039062.015626-.0625 1.003906-4.109375 1.515624-8.320312 1.515624-12.53125v-68.261718h-68.746093c-4.128907 0-7.976563 1.652343-10.832031 4.652343-2.589844 2.714844-6.699219 3.566407-10.457032 2.179688-.933594-.347657-1.914062-.519531-2.921875-.519531h-5.390625c-13.277344 0-24.082031 10.800781-24.082031 24.078124v37.871094c0 4.210938.511719 8.425782 1.519531 12.535156.007813.023438.011719.042969.015625.058594.53125 2.152344 1.230469 4.347656 2.085938 6.523438zm119.207031-87.390624h.019531zm0 0" fill="#3762cc"/><path d="m318.691406 398.535156-14.542968-63.375c.746093-2.21875 1.167968-4.585937 1.167968-7.054687v-3.378907c0-22.582031-18.304687-40.886718-40.886718-40.886718h-30.707032c-8.046875 0-14.875 5.152344-17.410156 12.332031-1.898438-3.703125-5.742188-6.242187-10.1875-6.242187h-3.03125c-14.269531 0-25.839844 11.566406-25.839844 25.839843v28.308594c0 1.394531.480469 2.667969 1.257813 3.703125l-11.644531 50.757812c-.386719 1.695313-.585938 3.429688-.585938 5.175782 0 12.242187 9.484375 22.167968 21.183594 22.167968h110.628906c11.699219 0 21.183594-9.925781 21.183594-22.167968 0-1.746094-.195313-3.484375-.585938-5.179688zm0 0" fill="#4671c6"/><path d="m274.632812 432.984375h-8.53125c-.019531 0-.035156-.003906-.054687-.003906l-.003906.003906h-56.121094c-14.828125 0-26.847656 12.019531-26.847656 26.84375v24.375h118.402343v-24.375c.003907-14.824219-12.015624-26.84375-26.84375-26.84375zm0 0" fill="#b9befc"/><path d="m298.09375 429.878906h-110.628906c-13.886719 0-25.183594-11.738281-25.183594-26.167968 0-2.039063.230469-4.078126.6875-6.070313l11.289062-49.191406c-.660156-1.363281-1.003906-2.84375-1.003906-4.375v-28.308594c0-16.453125 13.386719-29.839844 29.839844-29.839844h3.035156c3.480469 0 6.769532 1.15625 9.414063 3.199219 4.15625-5.722656 10.878906-9.285156 18.183593-9.285156h30.707032c24.75 0 44.886718 20.132812 44.886718 44.882812v3.378906c0 2.429688-.347656 4.851563-1.03125 7.214844l14.300782 62.320313c.457031 1.992187.6875 4.035156.6875 6.070312 0 14.433594-11.296875 26.171875-25.183594 26.171875zm-95-135.953125c-12.042969 0-21.839844 9.796875-21.839844 21.839844v28.308594c0 .460937.152344.898437.453125 1.296875.710938.941406.96875 2.152344.707031 3.300781l-11.648437 50.757813c-.320313 1.398437-.484375 2.84375-.484375 4.28125 0 10.015624 7.710938 18.167968 17.1875 18.167968h110.625c9.476562 0 17.183594-8.152344 17.183594-18.167968 0-1.4375-.164063-2.878907-.480469-4.28125l-14.542969-63.378907c-.167968-.714843-.128906-1.46875.105469-2.167969.636719-1.894531.960937-3.839843.960937-5.78125v-3.378906c0-20.339844-16.546874-36.886718-36.886718-36.886718h-30.707032c-6.117187 0-11.597656 3.882812-13.640624 9.664062-.535157 1.507812-1.910157 2.550781-3.507813 2.65625-1.5625.148438-3.097656-.746094-3.824219-2.167969-1.285156-2.507812-3.824218-4.0625-6.625-4.0625zm0 0" fill="#3762cc"/><path d="m252.140625 425.878906c-3.195313.601563-6.488281.925782-9.863281.925782s-6.667969-.324219-9.863282-.925782h-14.023437v6.101563c0 .378906.054687.746093.132813 1.113281h.003906c.078125.363281.195312.71875.34375 1.058594.023437.042968.039062.089844.0625.132812.066406.140625.136718.277344.214844.410156.078124.128907.160156.253907.25.375.046874.066407.085937.136719.136718.199219l3.390625 4.316407c3.378907 4.292968 8.066407 7.40625 13.371094 8.644531.710937.167969 1.449219.3125 2.210937.425781 8.613282 1.292969 17.226563-2.375 22.582032-9.28125l4.945312-6.382812c.070313-.339844.117188-.6875.117188-1.039063v-6.070313h-14.011719zm0 0" fill="#f9cfcf"/><path d="m301.476562 488.203125h-118.402343c-2.207031 0-4-1.792969-4-4v-24.375c0-17.007813 13.839843-30.847656 30.847656-30.847656h4.46875v-3.101563c0-2.207031 1.792969-4 4-4h14.023437c.246094 0 .496094.023438.738282.066406 6.050781 1.140626 12.195312 1.140626 18.25 0 .242187-.042968.492187-.066406.738281-.066406h14.007813c2.207031 0 4 1.792969 4 4v3.101563h4.484374c17.007813 0 30.84375 13.839843 30.84375 30.847656v24.375c0 2.207031-1.789062 4-4 4zm-114.402343-8h110.402343v-20.375c0-12.597656-10.246093-22.847656-22.84375-22.847656h-8.53125c-.019531 0-.039062 0-.054687 0-1.199219 0-2.332031-.535157-3.09375-1.457031-.761719-.921876-1.070313-2.136719-.839844-3.3125.019531-.085938.039063-.171876.039063-.261719v-2.070313h-9.640625c-6.792969 1.234375-13.679688 1.230469-20.460938 0h-9.65625v2.101563c.007813.050781.023438.132812.042969.214843.234375 1.175782-.066406 2.394532-.828125 3.324219-.757813.925781-1.894531 1.460938-3.09375 1.460938h-8.589844c-12.597656 0-22.847656 10.25-22.847656 22.847656v20.375zm0 0" fill="#3762cc"/><path d="m281.8125 434.921875-4.886719-4.425781c-.765625-.695313-1.816406-1.085938-2.910156-1.085938h-63.851563c-1.09375 0-2.140624.390625-2.910156 1.085938l-4.886718 4.425781c-.75.679687-.789063 1.765625-.089844 2.484375l17.195312 17.734375-.003906-.101563h45.335938l17.097656-17.636718c.699218-.71875.660156-1.800782-.089844-2.480469zm0 0" fill="#e0ebfc"/><path d="m219.414062 459.105469c-1.039062 0-2.054687-.398438-2.8125-1.179688l-17.191406-17.734375c-1.097656-1.128906-1.675781-2.609375-1.628906-4.160156.050781-1.558594.722656-3.003906 1.898438-4.070312l4.886718-4.429688c1.519532-1.371094 3.503906-2.125 5.597656-2.125h63.851563c2.097656 0 4.085937.753906 5.597656 2.125l4.882813 4.425781c.003906 0 .003906.003907.003906.003907 1.175781 1.066406 1.847656 2.511718 1.898438 4.066406.046874 1.550781-.527344 3.027344-1.625 4.160156l-17.101563 17.636719c-.75.777343-1.789063 1.214843-2.871094 1.214843h-44.667969c-.238281.046876-.476562.066407-.71875.066407zm1.65625-8.0625h42.039063l14.28125-14.730469-3.148437-2.851562c-.015626-.011719-.097657-.050782-.226563-.050782h-63.847656c-.132813 0-.21875.042969-.234375.054688l-3.140625 2.847656zm0 0" fill="#3762cc"/><path d="m459.203125 438.839844-5.425781-4.914063c-.855469-.777343-2.019532-1.210937-3.234375-1.210937h-70.945313c-1.214844 0-2.378906.4375-3.234375 1.210937l-5.425781 4.914063c-.835938.757812-.878906 1.957031-.101562 2.761718l19.105468 19.703126-.007812-.109376h50.371094l19-19.59375c.777343-.804687.734374-2.003906-.101563-2.761718zm0 0" fill="#e0ebfc"/><path d="m389.878906 465.265625c-1.039062 0-2.054687-.398437-2.808594-1.175781l-19.105468-19.707032c-1.132813-1.167968-1.730469-2.695312-1.683594-4.300781.050781-1.609375.75-3.105469 1.96875-4.207031l5.425781-4.917969c1.597657-1.445312 3.703125-2.242187 5.921875-2.242187h70.945313c2.21875 0 4.320312.796875 5.921875 2.242187l5.425781 4.917969c1.214844 1.101562 1.917969 2.597656 1.964844 4.207031.050781 1.605469-.542969 3.132813-1.683594 4.300781l-18.996094 19.597657c-.75.777343-1.789062 1.214843-2.871093 1.214843h-49.675782c-.246094.046876-.5.070313-.75.070313zm1.648438-8.070313h47.085937l16.316407-16.828124-3.839844-3.476563c-.085938-.082031-.285156-.175781-.546875-.175781h-70.945313c-.265625 0-.460937.09375-.546875.175781l-3.839843 3.476563zm0 0" fill="#3762cc"/><path d="m116.164062 438.839844-5.425781-4.914063c-.851562-.777343-2.019531-1.210937-3.234375-1.210937h-70.945312c-1.214844 0-2.378906.4375-3.234375 1.210937l-5.425781 4.914063c-.832032.757812-.878907 1.957031-.097657 2.761718l19.101563 19.703126-.007813-.109376h50.371094l19-19.59375c.777344-.804687.734375-2.003906-.101563-2.761718zm0 0" fill="#a4c9ff"/><path d="m46.835938 465.265625c-1.035157 0-2.050782-.398437-2.804688-1.175781l-19.105469-19.707032c-1.136719-1.167968-1.734375-2.695312-1.683593-4.300781.050781-1.609375.75-3.105469 1.96875-4.207031l5.425781-4.917969c1.601562-1.445312 3.703125-2.242187 5.921875-2.242187h70.945312c2.21875 0 4.320313.796875 5.917969 2.242187l5.429687 4.917969c1.214844 1.101562 1.914063 2.597656 1.964844 4.207031.050782 1.605469-.546875 3.132813-1.683594 4.300781l-18.996093 19.597657c-.75.777343-1.789063 1.214843-2.871094 1.214843h-49.675781c-.25.046876-.5.070313-.753906.070313zm1.652343-8.070313h47.085938l16.316406-16.828124-3.839844-3.476563c-.085937-.082031-.285156-.175781-.546875-.175781h-70.945312c-.265625 0-.464844.097656-.554688.175781l-3.832031 3.476563zm0 0" fill="#3762cc"/><path d="m305.335938 188.203125c0 33.816406-27.417969 61.234375-61.234376 61.234375-33.820312 0-61.234374-27.417969-61.234374-61.234375 0-33.820313 27.414062-61.234375 61.234374-61.234375 33.816407 0 61.234376 27.414062 61.234376 61.234375zm0 0" fill="#f9a7a7"/><path d="m224.230469 161.9375v52.929688c0 2.109374 2.253906 3.460937 4.117187 2.460937l49.402344-26.464844c1.96875-1.054687 1.96875-3.875 0-4.925781l-49.402344-26.46875c-1.863281-.996094-4.117187.355469-4.117187 2.46875zm0 0" fill="#e0ebfc"/></svg>